<mxfile host="app.diagrams.net" modified="2023-11-28T08:59:49.536Z" agent="Mozilla/5.0 (Windows NT 10.0; Win64; x64) AppleWebKit/537.36 (KHTML, like Gecko) Chrome/119.0.0.0 Safari/537.36 Edg/119.0.0.0" etag="msGtnY2CnQNPlmCX6b4g" version="22.1.4" type="github">
  <diagram name="Page-1" id="B_uwW1igQrW0XAac92bT">
    <mxGraphModel dx="1066" dy="1739" grid="1" gridSize="10" guides="1" tooltips="1" connect="1" arrows="1" fold="1" page="1" pageScale="1" pageWidth="850" pageHeight="1100" math="0" shadow="0">
      <root>
        <mxCell id="0" />
        <mxCell id="1" parent="0" />
        <mxCell id="jUQV0kKOYJnXGopkKhov-3" style="edgeStyle=orthogonalEdgeStyle;rounded=0;orthogonalLoop=1;jettySize=auto;html=1;exitX=0.5;exitY=1;exitDx=0;exitDy=0;entryX=0.5;entryY=0;entryDx=0;entryDy=0;" edge="1" parent="1" source="jUQV0kKOYJnXGopkKhov-1" target="jUQV0kKOYJnXGopkKhov-4">
          <mxGeometry relative="1" as="geometry">
            <mxPoint x="420" y="540" as="targetPoint" />
          </mxGeometry>
        </mxCell>
        <mxCell id="jUQV0kKOYJnXGopkKhov-1" value="Input" style="rounded=0;whiteSpace=wrap;html=1;fillColor=#1ba1e2;fontColor=#ffffff;strokeColor=#006EAF;" vertex="1" parent="1">
          <mxGeometry x="270" y="20" width="120" height="60" as="geometry" />
        </mxCell>
        <mxCell id="jUQV0kKOYJnXGopkKhov-8" style="edgeStyle=orthogonalEdgeStyle;rounded=0;orthogonalLoop=1;jettySize=auto;html=1;exitX=0.5;exitY=1;exitDx=0;exitDy=0;entryX=0.5;entryY=0;entryDx=0;entryDy=0;" edge="1" parent="1" source="jUQV0kKOYJnXGopkKhov-4" target="jUQV0kKOYJnXGopkKhov-6">
          <mxGeometry relative="1" as="geometry" />
        </mxCell>
        <mxCell id="jUQV0kKOYJnXGopkKhov-4" value="Activities" style="rounded=0;whiteSpace=wrap;html=1;fillColor=#008a00;fontColor=#ffffff;strokeColor=#005700;" vertex="1" parent="1">
          <mxGeometry x="270" y="150" width="120" height="60" as="geometry" />
        </mxCell>
        <mxCell id="jUQV0kKOYJnXGopkKhov-5" value="Impact pathway" style="text;html=1;strokeColor=none;fillColor=none;align=center;verticalAlign=middle;whiteSpace=wrap;rounded=0;" vertex="1" parent="1">
          <mxGeometry x="245" y="-50" width="170" height="30" as="geometry" />
        </mxCell>
        <mxCell id="jUQV0kKOYJnXGopkKhov-12" style="edgeStyle=orthogonalEdgeStyle;rounded=0;orthogonalLoop=1;jettySize=auto;html=1;exitX=0.5;exitY=1;exitDx=0;exitDy=0;entryX=0.5;entryY=0;entryDx=0;entryDy=0;" edge="1" parent="1" source="jUQV0kKOYJnXGopkKhov-6" target="jUQV0kKOYJnXGopkKhov-9">
          <mxGeometry relative="1" as="geometry" />
        </mxCell>
        <mxCell id="jUQV0kKOYJnXGopkKhov-6" value="Outputs" style="rounded=0;whiteSpace=wrap;html=1;fillColor=#e51400;fontColor=#ffffff;strokeColor=#B20000;" vertex="1" parent="1">
          <mxGeometry x="270" y="300" width="120" height="60" as="geometry" />
        </mxCell>
        <mxCell id="jUQV0kKOYJnXGopkKhov-16" style="edgeStyle=orthogonalEdgeStyle;rounded=0;orthogonalLoop=1;jettySize=auto;html=1;exitX=0.5;exitY=1;exitDx=0;exitDy=0;entryX=0.5;entryY=0;entryDx=0;entryDy=0;" edge="1" parent="1" source="jUQV0kKOYJnXGopkKhov-9" target="jUQV0kKOYJnXGopkKhov-13">
          <mxGeometry relative="1" as="geometry" />
        </mxCell>
        <mxCell id="jUQV0kKOYJnXGopkKhov-9" value="Outcomes" style="rounded=0;whiteSpace=wrap;html=1;fillColor=#647687;strokeColor=#314354;fontColor=#ffffff;" vertex="1" parent="1">
          <mxGeometry x="270" y="440" width="120" height="60" as="geometry" />
        </mxCell>
        <mxCell id="jUQV0kKOYJnXGopkKhov-13" value="Impact" style="rounded=0;whiteSpace=wrap;html=1;fillColor=#6a00ff;strokeColor=#3700CC;fontColor=#ffffff;" vertex="1" parent="1">
          <mxGeometry x="270" y="580" width="120" height="60" as="geometry" />
        </mxCell>
      </root>
    </mxGraphModel>
  </diagram>
</mxfile>
